<?xml version="1.0" ?>
<svg height="1000" width="1000" xmlns="http://www.w3.org/2000/svg">
    <path
            d="M200 940c-38-5-66-41-61-78 1-10 4-18 6-20l49-79 129-211 83-135V197l-7-4a71 71 0 01-34-93c9-19 25-33 46-39l8-2h163l7 2a72 72 0 0152 69c0 27-15 51-39 63l-7 3v7c0 9-2 14-7 19l-7 4-4 1v30l3 1c5 1 9 5 12 10l2 3v145l83 136a390690 390690 0 01178 290c4 4 8 23 6 33-2 26-17 48-40 59-16 7 14 6-317 6H200z"
            fill="#d3f5fd"
    />
    <path
            d="M198 939c-5-1-16-4-22-8-11-5-23-18-29-29s-8-23-8-36c1-11 3-19 6-23l132-214 130-212V197l-9-5c-8-3-11-6-18-13a66 66 0 01-19-33c-4-17-2-32 6-48 4-8 6-11 13-18 10-10 20-16 33-19 8-2 9-2 87-2s79 0 87 2c13 3 23 9 33 19 7 7 9 10 13 18a73 73 0 01-1 64c-5 12-17 24-29 30l-8 4v5c0 15-8 25-21 25-10 1-17-6-21-18-2-6-1-30 1-35 2-8 9-13 19-14 9-1 14-4 19-10 8-8 10-18 6-29-1-4-3-7-7-11-9-9-5-9-91-9s-82 0-91 9c-9 8-11 18-7 30 1 6 8 14 14 17s18 4 36 5c12 0 15 0 19 2 15 8 15 28 0 36-5 3-6 3-14 3h-9v224l-2 4-59 96C164 891 180 864 180 869c0 9 3 15 9 21 10 10-24 9 311 9s301 1 311-9c6-6 9-12 9-21a10269652 10269652 0 01-267-443l-1-76c1-81 0-79 8-86 9-9 18-9 28-1 6 6 8 12 6 25l-1 69v60l130 212 132 214c3 4 5 12 6 23 1 21-6 38-21 53-9 9-16 14-29 18l-7 2-302 1-304-1zm75-74c-6-1-8-2-13-7-8-7-12-20-9-30l46-81a1518722 1518722 0 0092-158l13 4c21 9 40 13 62 15 25 2 38 0 68-13 28-12 31-12 54-12l21 1a4826399 4826399 0 01142 244c2 6 1 15-2 22-3 6-10 12-17 15-4 1-14 2-228 2-191 0-224 0-229-2z"
            fill="#d9b7fb"
    />
    <path
            d="M198 939c-5-1-16-4-22-8-11-5-23-18-29-29s-8-23-8-36c1-11 3-19 6-23l132-214 130-212V197l-9-5c-8-3-11-6-18-13a66 66 0 01-19-33c-4-17-2-32 6-48 4-8 6-11 13-18 10-10 20-16 33-19 8-2 9-2 87-2s79 0 87 2c13 3 23 9 33 19 7 7 9 10 13 18a73 73 0 01-1 64c-5 12-17 24-29 30l-8 4v5c0 15-8 25-21 25-10 1-17-6-21-18-2-6-1-30 1-35 2-8 9-13 19-14 9-1 14-4 19-10 8-8 10-18 6-29-1-4-3-7-7-11-9-9-5-9-91-9s-82 0-91 9c-9 8-11 18-7 30 1 6 8 14 14 17s18 4 36 5c12 0 15 0 19 2 15 8 15 28 0 36-5 3-6 3-14 3h-9v224l-2 4-59 96C164 891 180 864 180 869c0 9 3 15 9 21 10 10-24 9 311 9s301 1 311-9c6-6 9-12 9-21a10269652 10269652 0 01-267-443l-1-76c1-81 0-79 8-86 9-9 18-9 28-1 6 6 8 12 6 25l-1 69v60l130 212 132 214c3 4 5 12 6 23 1 21-6 38-21 53-9 9-16 14-29 18l-7 2-302 1-304-1zm72-76c-2 0-6-3-9-6-3-2-5-4-6-3v-1-4l-3-8c-2-8 0-14 8-28 4-7 7-12 6-13l1-1a88 88 0 0015-26 356 356 0 0030-52c1 1 11-17 10-18l1-1a88 88 0 0015-26c1 1 11-17 10-18l1-1c1 1 4-5 3-6l1-1 18-29c14-24 18-30 20-30l11 4c30 12 68 18 93 14 12-2 18-4 41-14 24-10 26-10 49-10h21c2 1 6 7 21 33a251 251 0 0021 33c-1 1 2 7 3 6l1 1c-1 1 9 19 10 18l1 1c-1 1 13 26 14 25l1 1c-1 1 9 19 10 18l1 1a356 356 0 0030 52c-1 1 13 26 14 25l1 1c-1 1 2 6 6 13 8 14 10 20 8 28l-3 8v5c-1-1-3 1-6 3-9 9 13 8-239 8-198 0-226 0-230-2zm371-69c10-7 12-20 3-29s-22-8-29 2c-4 5-5 12-3 18 1 4 6 9 11 11 4 3 13 2 18-2zm-91-1c19-9 28-30 21-49-5-15-21-27-37-27-10 0-23 6-30 15-18 21-9 52 17 62 8 3 22 2 29-1zm23-126c5-2 9-7 10-11 0-5-3-12-7-15s-12-2-16 1c-9 6-8 21 3 25h10z"
            fill="#b8d0d5"
    />
    <path
            d="M196 938c-25-6-45-24-53-48-5-15-3-40 3-48a743734 743734 0 01260-424c2-3 2-14 2-112l-1-110-7-4c-18-8-31-24-37-43-2-6-2-10-2-20 0-11 0-14 2-20 7-22 24-38 46-46l8-2h167l7 2c22 8 39 24 46 46 2 6 2 9 2 20 0 10 0 14-2 20-6 19-19 35-36 43-7 3-8 4-8 13 0 10-6 17-15 20-8 2-17-2-21-10-2-5-3-7-3-21v-20c2-7 11-14 19-14 7 0 13-3 19-9 7-6 9-12 9-21 0-10-2-16-9-22-9-10-4-9-92-9s-83-1-92 9c-7 6-9 12-9 22 0 8 2 14 8 20 8 9 14 11 43 12 13 0 18 1 21 2 10 6 13 18 7 28-4 6-10 8-21 9l-10 1-1 113v112l-2 4-134 219-131 213v7c0 9 2 15 9 21 10 10-25 9 312 9s302 1 312-9c7-6 9-12 9-21v-7L690 650 556 431l-2-4v-72l1-78c1-7 4-13 10-16 8-4 20-2 25 6l2 4v72c0 66 0 72 2 75 0 2 28 47 60 100a743734 743734 0 01200 324c6 8 8 33 3 48-7 22-23 38-45 46l-8 2-301 1-307-1zm74-75c-6-2-13-9-16-15-4-8-3-17 1-25a30982 30982 0 01136-232l12 4c29 12 67 18 92 14 12-2 18-4 41-14 24-10 26-10 50-10l21 1 42 70a744743 744743 0 0099 174c2 9-1 20-9 27-9 9 13 8-239 8-198 0-226 0-230-2zm371-69c10-7 12-20 3-29s-22-8-29 2c-4 5-5 12-3 18 1 4 6 9 11 11 4 3 13 2 18-2zm-91-1c19-9 28-30 21-49-5-15-21-27-37-27-10 0-23 6-30 15-18 21-9 52 17 62 8 3 22 2 29-1zm23-126c5-2 9-7 10-11 0-5-3-12-7-15s-12-2-16 1c-9 6-8 21 3 25h10z"
            fill="#c288fc"
    />
    <path
            d="M196 938c-25-6-45-24-53-48-5-15-3-40 3-48a743734 743734 0 01260-424c2-3 2-14 2-112l-1-110-7-4c-18-8-31-24-37-43-2-6-2-10-2-20 0-11 0-14 2-20 7-22 24-38 46-46l8-2h167l7 2c22 8 39 24 46 46 2 6 2 9 2 20 0 10 0 14-2 20-6 19-19 35-36 43-7 3-8 4-8 13 0 10-6 17-15 20-8 2-17-2-21-10-2-5-3-7-3-21v-20c2-7 11-14 19-14 7 0 13-3 19-9 7-6 9-12 9-21 0-10-2-16-9-22-9-10-4-9-92-9s-83-1-92 9c-7 6-9 12-9 22 0 8 2 14 8 20 8 9 14 11 43 12 13 0 18 1 21 2 10 6 13 18 7 28-4 6-10 8-21 9l-10 1-1 113v112l-2 4-134 219-131 213v7c0 9 2 15 9 21 10 10-25 9 312 9s302 1 312-9c7-6 9-12 9-21v-7L690 650 556 431l-2-4v-72l1-78c1-7 4-13 10-16 8-4 20-2 25 6l2 4v72c0 66 0 72 2 75 0 2 28 47 60 100a743734 743734 0 01200 324c6 8 8 33 3 48-7 22-23 38-45 46l-8 2-301 1-307-1z"
            fill="#969a9b"
    />
    <path
            d="M196 936c-4 0-12-3-17-6-8-3-11-6-18-12-6-7-9-10-12-18-6-12-9-23-8-34 1-10 3-20 6-22l132-215 130-212V306l-1-111-10-5c-12-6-23-17-29-30a65 65 0 010-61c8-17 23-30 43-36l88-1 89 1a70 70 0 0150 63c1 11-2 22-8 34-6 13-16 23-29 30l-9 5-1 8c0 8-2 12-6 16-7 7-19 7-25-1-5-5-6-12-6-28 0-13 0-15 2-19 3-6 8-9 17-10 12-1 20-7 25-17 3-6 3-7 3-14 0-8 0-9-3-15-4-7-8-11-16-15l-5-2H423l-6 2c-8 4-12 8-16 15-3 6-3 7-3 15 0 7 0 8 3 14 5 10 13 15 24 17l25 2c16 0 18 1 21 3 10 7 12 21 3 29-5 3-7 4-18 5l-10 1-1 113v112l-4 7-133 218-130 212v7c0 13 6 22 17 28l6 3h598l5-2c7-4 11-8 15-15 3-5 3-7 3-14v-7L691 649 557 430l-3-5 1-75c0-69 1-75 2-78 3-6 5-8 9-10 8-4 17-2 22 5l3 4v146l130 212 132 215c3 2 5 12 6 22 1 11-2 22-8 34-3 8-6 11-12 18-7 6-10 9-18 12-17 9 11 8-322 8-257 0-297 0-303-2z"
            fill="#7e8081"
    />
    <path
            d="M194 935c-32-8-54-38-52-70 1-9 3-18 5-20a25792 25792 0 00262-426l1-114V195l-9-4c-15-8-25-18-32-32-16-33-3-72 30-89 14-8 9-7 101-7l89 1c27 9 47 33 49 61 2 27-14 54-39 65l-7 5-1 9c0 8-3 13-9 17-10 6-22-1-25-13l-1-20c0-14 1-15 3-18 4-5 8-7 16-8 11-2 20-8 25-18 2-3 2-6 3-13 0-8 0-9-3-15-3-8-11-15-18-18l-82-1-82 1c-7 3-15 10-18 18-3 6-3 7-3 15 1 10 3 16 10 22 8 8 16 10 43 11 18 1 21 1 25 7 5 6 5 15 0 21-5 5-8 6-19 7l-11 1-1 114-1 114-263 429c-3 6-3 6-3 14 1 13 7 22 18 28l5 3h601l5-3c10-6 16-15 17-28 0-8 0-8-3-14L557 428l-1-78c0-57 1-75 2-77 1-4 6-9 9-11h14c3 2 9 8 9 10v145l8 13a90695 90695 0 00255 415c2 2 4 11 5 20 2 27-14 54-39 66-16 7 10 6-320 6-278 0-298 0-305-2z"
            fill="#7a7a7a"
    />
</svg>