<?xml version="1.0" standalone="no"?>
<!DOCTYPE svg PUBLIC "-//W3C//DTD SVG 20010904//EN"
 "http://www.w3.org/TR/2001/REC-SVG-20010904/DTD/svg10.dtd">
<svg version="1.0" xmlns="http://www.w3.org/2000/svg"
 width="425.000000pt" height="425.000000pt" viewBox="0 0 425.000000 425.000000"
 preserveAspectRatio="xMidYMid meet">
<metadata>
Created by potrace 1.14, written by Peter Selinger 2001-2017
</metadata>
<g transform="translate(0.000000,425.000000) scale(0.100000,-0.100000)"
fill="#000000" stroke="none">
<path d="M424 4014 c-16 -8 -42 -25 -58 -39 -16 -14 -33 -25 -38 -25 -5 0 -6
-4 -3 -10 3 -5 1 -10 -4 -10 -6 0 -11 -7 -11 -15 0 -8 -5 -15 -11 -15 -6 0 -9
-7 -5 -15 3 -8 0 -15 -7 -15 -8 0 -6 -4 3 -10 8 -5 10 -10 5 -10 -6 0 -11 -9
-11 -20 0 -11 4 -20 8 -20 4 0 8 -6 8 -14 0 -20 41 -27 81 -15 61 18 70 18 89
-1 11 -11 20 -22 20 -25 0 -5 25 -37 48 -61 7 -8 10 -14 7 -14 -4 0 6 -13 21
-28 16 -15 37 -40 48 -55 10 -15 23 -24 29 -20 6 3 7 1 3 -5 -4 -7 -2 -12 5
-12 7 0 9 -3 6 -7 -4 -4 5 -19 20 -35 15 -15 23 -28 19 -28 -5 0 6 -13 24 -30
18 -16 29 -30 26 -30 -6 0 7 -16 64 -80 14 -16 30 -35 35 -42 6 -8 19 -25 30
-38 12 -14 14 -20 5 -15 -13 7 -13 6 -2 -7 8 -10 9 -19 3 -22 -11 -7 -9 -25 3
-45 6 -10 5 -12 -2 -7 -16 9 -15 -7 0 -22 19 -19 19 -191 0 -219 -8 -13 -10
-23 -6 -23 5 0 3 -4 -3 -8 -24 -15 -19 -115 8 -166 8 -14 7 -16 -3 -11 -7 4
-1 -5 15 -19 43 -42 55 -68 50 -103 -3 -18 -10 -33 -15 -33 -6 0 -5 -6 2 -15
7 -8 8 -15 3 -15 -6 0 -9 -10 -9 -22 1 -13 0 -27 -3 -33 -11 -20 -10 -40 2
-47 7 -4 7 -8 2 -8 -13 0 -13 -99 -1 -119 7 -10 5 -12 -5 -6 -11 7 -12 6 -3
-6 6 -8 11 -25 12 -39 1 -14 6 -26 12 -28 5 -2 8 -8 5 -12 -6 -10 41 -60 55
-60 6 0 10 -4 10 -10 0 -5 7 -10 15 -10 8 0 15 -5 15 -11 0 -5 4 -8 9 -4 19
11 25 -22 27 -135 1 -63 3 -115 4 -115 1 0 3 -16 4 -35 1 -20 5 -41 10 -48 4
-7 5 -16 1 -21 -3 -5 -1 -12 5 -16 6 -4 8 -10 5 -15 -7 -11 59 -172 107 -259
23 -41 60 -97 83 -125 23 -28 57 -76 77 -106 42 -66 212 -227 306 -289 210
-140 447 -259 602 -302 19 -6 50 -17 67 -25 38 -17 140 -30 319 -40 l128 -7
59 -48 c130 -105 308 -155 520 -146 117 4 133 7 190 35 34 17 81 50 105 73 44
43 50 64 44 161 -2 33 1 39 30 54 39 19 194 168 213 204 32 61 48 162 42 274
-5 123 -13 160 -63 320 -64 203 -236 503 -374 651 -25 28 -55 64 -65 80 -11
17 -61 73 -112 124 -51 52 -93 99 -93 103 0 4 -4 8 -10 8 -12 0 -42 24 -90 73
-21 20 -43 37 -49 37 -6 0 -11 5 -11 11 0 5 -3 8 -7 6 -10 -6 -34 19 -26 27 4
3 0 6 -8 6 -8 0 -29 14 -47 30 -18 17 -37 30 -43 30 -5 0 -9 5 -9 10 0 6 -7
10 -15 10 -8 0 -15 5 -15 10 0 6 -5 10 -10 10 -6 0 -16 5 -23 10 -31 26 -86
58 -91 52 -3 -3 -6 0 -6 6 0 6 -16 16 -35 22 -19 6 -35 16 -35 21 0 5 -3 8 -7
7 -5 -1 -27 8 -49 20 -23 11 -44 18 -48 15 -3 -4 -6 -1 -6 5 0 7 -3 11 -7 10
-5 -1 -39 8 -78 20 -84 26 -155 42 -155 35 0 -3 -6 -1 -12 4 -7 5 -41 9 -75 9
-35 -1 -63 3 -63 7 0 5 -5 5 -11 1 -16 -9 -139 -10 -139 -1 0 5 -4 6 -9 2 -5
-3 -12 4 -16 15 -3 11 -12 20 -18 20 -7 0 -21 11 -31 25 -10 14 -25 25 -33 25
-7 0 -16 6 -19 14 -9 24 -91 53 -174 62 -25 3 -51 7 -57 9 -7 2 -13 1 -13 -3
0 -4 -32 -6 -70 -6 -58 1 -77 6 -110 28 -22 14 -44 26 -50 26 -5 0 -10 4 -10
8 0 4 -8 8 -17 9 -10 0 -29 4 -43 8 -14 4 -63 9 -110 10 -47 2 -87 4 -90 5 -3
1 -8 2 -12 1 -5 0 -8 2 -8 7 0 4 -19 8 -42 10 -29 2 -51 11 -69 28 -25 24
-109 42 -109 23 0 -5 -11 -3 -25 3 -14 6 -25 15 -25 19 0 7 -38 54 -77 96 -12
13 -20 23 -18 23 2 0 -9 14 -25 32 -16 17 -26 36 -23 41 3 6 2 8 -3 5 -5 -3
-15 0 -22 8 -7 8 -10 14 -6 14 4 0 -6 13 -22 29 -55 53 -134 142 -134 150 0 4
-11 14 -25 21 -13 7 -22 16 -20 20 3 5 -2 10 -10 14 -8 3 -15 10 -15 16 0 6
-7 18 -15 26 -20 21 -19 27 10 58 27 29 32 42 13 30 -10 -6 -10 -4 -2 7 13 16
15 49 2 49 -4 0 -8 5 -8 11 0 38 -75 57 -126 33z"/>
</g>
</svg>
